<?xml version="1.0" encoding="utf-8" standalone="no"?>
<!DOCTYPE svg PUBLIC "-//W3C//DTD SVG 1.1//EN"
  "http://www.w3.org/Graphics/SVG/1.1/DTD/svg11.dtd">
<svg xmlns:xlink="http://www.w3.org/1999/xlink" width="720pt" height="360pt" viewBox="0 0 720 360" xmlns="http://www.w3.org/2000/svg" version="1.1">
 <metadata>
  <rdf:RDF xmlns:dc="http://purl.org/dc/elements/1.1/" xmlns:cc="http://creativecommons.org/ns#" xmlns:rdf="http://www.w3.org/1999/02/22-rdf-syntax-ns#">
   <cc:Work>
    <dc:type rdf:resource="http://purl.org/dc/dcmitype/StillImage"/>
    <dc:date>2022-02-27T19:47:01.364127</dc:date>
    <dc:format>image/svg+xml</dc:format>
    <dc:creator>
     <cc:Agent>
      <dc:title>Matplotlib v3.5.1, https://matplotlib.org/</dc:title>
     </cc:Agent>
    </dc:creator>
   </cc:Work>
  </rdf:RDF>
 </metadata>
 <defs>
  <style type="text/css">*{stroke-linejoin: round; stroke-linecap: butt}</style>
 </defs>
 <g id="figure_1">
  <g id="patch_1">
   <path d="M 0 360 
L 720 360 
L 720 0 
L 0 0 
z
" style="fill: #ffffff"/>
  </g>
  <g id="axes_1">
   <g id="patch_2">
    <path d="M 90 320.4 
L 648 320.4 
L 648 43.2 
L 90 43.2 
z
" style="fill: #ffffff"/>
   </g>
   <g id="matplotlib.axis_1">
    <g id="xtick_1">
     <g id="line2d_1">
      <path d="M 105.011132 320.4 
L 105.011132 43.2 
" clip-path="url(#pba25413067)" style="fill: none; stroke: #b0b0b0; stroke-width: 0.8; stroke-linecap: square"/>
     </g>
     <g id="line2d_2">
      <defs>
       <path id="m97b51e6102" d="M 0 0 
L 0 3.5 
" style="stroke: #000000; stroke-width: 0.8"/>
      </defs>
      <g>
       <use xlink:href="#m97b51e6102" x="105.011132" y="320.4" style="stroke: #000000; stroke-width: 0.8"/>
      </g>
     </g>
     <g id="text_1">
      <!-- 0 -->
      <g transform="translate(101.829882 334.998438)scale(0.1 -0.1)">
       <defs>
        <path id="DejaVuSans-30" d="M 2034 4250 
Q 1547 4250 1301 3770 
Q 1056 3291 1056 2328 
Q 1056 1369 1301 889 
Q 1547 409 2034 409 
Q 2525 409 2770 889 
Q 3016 1369 3016 2328 
Q 3016 3291 2770 3770 
Q 2525 4250 2034 4250 
z
M 2034 4750 
Q 2819 4750 3233 4129 
Q 3647 3509 3647 2328 
Q 3647 1150 3233 529 
Q 2819 -91 2034 -91 
Q 1250 -91 836 529 
Q 422 1150 422 2328 
Q 422 3509 836 4129 
Q 1250 4750 2034 4750 
z
" transform="scale(0.015625)"/>
       </defs>
       <use xlink:href="#DejaVuSans-30"/>
      </g>
     </g>
    </g>
    <g id="xtick_2">
     <g id="line2d_3">
      <path d="M 208.536178 320.4 
L 208.536178 43.2 
" clip-path="url(#pba25413067)" style="fill: none; stroke: #b0b0b0; stroke-width: 0.8; stroke-linecap: square"/>
     </g>
     <g id="line2d_4">
      <g>
       <use xlink:href="#m97b51e6102" x="208.536178" y="320.4" style="stroke: #000000; stroke-width: 0.8"/>
      </g>
     </g>
     <g id="text_2">
      <!-- 10 -->
      <g transform="translate(202.173678 334.998438)scale(0.1 -0.1)">
       <defs>
        <path id="DejaVuSans-31" d="M 794 531 
L 1825 531 
L 1825 4091 
L 703 3866 
L 703 4441 
L 1819 4666 
L 2450 4666 
L 2450 531 
L 3481 531 
L 3481 0 
L 794 0 
L 794 531 
z
" transform="scale(0.015625)"/>
       </defs>
       <use xlink:href="#DejaVuSans-31"/>
       <use xlink:href="#DejaVuSans-30" x="63.623047"/>
      </g>
     </g>
    </g>
    <g id="xtick_3">
     <g id="line2d_5">
      <path d="M 312.061224 320.4 
L 312.061224 43.2 
" clip-path="url(#pba25413067)" style="fill: none; stroke: #b0b0b0; stroke-width: 0.8; stroke-linecap: square"/>
     </g>
     <g id="line2d_6">
      <g>
       <use xlink:href="#m97b51e6102" x="312.061224" y="320.4" style="stroke: #000000; stroke-width: 0.8"/>
      </g>
     </g>
     <g id="text_3">
      <!-- 20 -->
      <g transform="translate(305.698724 334.998438)scale(0.1 -0.1)">
       <defs>
        <path id="DejaVuSans-32" d="M 1228 531 
L 3431 531 
L 3431 0 
L 469 0 
L 469 531 
Q 828 903 1448 1529 
Q 2069 2156 2228 2338 
Q 2531 2678 2651 2914 
Q 2772 3150 2772 3378 
Q 2772 3750 2511 3984 
Q 2250 4219 1831 4219 
Q 1534 4219 1204 4116 
Q 875 4013 500 3803 
L 500 4441 
Q 881 4594 1212 4672 
Q 1544 4750 1819 4750 
Q 2544 4750 2975 4387 
Q 3406 4025 3406 3419 
Q 3406 3131 3298 2873 
Q 3191 2616 2906 2266 
Q 2828 2175 2409 1742 
Q 1991 1309 1228 531 
z
" transform="scale(0.015625)"/>
       </defs>
       <use xlink:href="#DejaVuSans-32"/>
       <use xlink:href="#DejaVuSans-30" x="63.623047"/>
      </g>
     </g>
    </g>
    <g id="xtick_4">
     <g id="line2d_7">
      <path d="M 415.586271 320.4 
L 415.586271 43.2 
" clip-path="url(#pba25413067)" style="fill: none; stroke: #b0b0b0; stroke-width: 0.8; stroke-linecap: square"/>
     </g>
     <g id="line2d_8">
      <g>
       <use xlink:href="#m97b51e6102" x="415.586271" y="320.4" style="stroke: #000000; stroke-width: 0.8"/>
      </g>
     </g>
     <g id="text_4">
      <!-- 30 -->
      <g transform="translate(409.223771 334.998438)scale(0.1 -0.1)">
       <defs>
        <path id="DejaVuSans-33" d="M 2597 2516 
Q 3050 2419 3304 2112 
Q 3559 1806 3559 1356 
Q 3559 666 3084 287 
Q 2609 -91 1734 -91 
Q 1441 -91 1130 -33 
Q 819 25 488 141 
L 488 750 
Q 750 597 1062 519 
Q 1375 441 1716 441 
Q 2309 441 2620 675 
Q 2931 909 2931 1356 
Q 2931 1769 2642 2001 
Q 2353 2234 1838 2234 
L 1294 2234 
L 1294 2753 
L 1863 2753 
Q 2328 2753 2575 2939 
Q 2822 3125 2822 3475 
Q 2822 3834 2567 4026 
Q 2313 4219 1838 4219 
Q 1578 4219 1281 4162 
Q 984 4106 628 3988 
L 628 4550 
Q 988 4650 1302 4700 
Q 1616 4750 1894 4750 
Q 2613 4750 3031 4423 
Q 3450 4097 3450 3541 
Q 3450 3153 3228 2886 
Q 3006 2619 2597 2516 
z
" transform="scale(0.015625)"/>
       </defs>
       <use xlink:href="#DejaVuSans-33"/>
       <use xlink:href="#DejaVuSans-30" x="63.623047"/>
      </g>
     </g>
    </g>
    <g id="xtick_5">
     <g id="line2d_9">
      <path d="M 519.111317 320.4 
L 519.111317 43.2 
" clip-path="url(#pba25413067)" style="fill: none; stroke: #b0b0b0; stroke-width: 0.8; stroke-linecap: square"/>
     </g>
     <g id="line2d_10">
      <g>
       <use xlink:href="#m97b51e6102" x="519.111317" y="320.4" style="stroke: #000000; stroke-width: 0.8"/>
      </g>
     </g>
     <g id="text_5">
      <!-- 40 -->
      <g transform="translate(512.748817 334.998438)scale(0.1 -0.1)">
       <defs>
        <path id="DejaVuSans-34" d="M 2419 4116 
L 825 1625 
L 2419 1625 
L 2419 4116 
z
M 2253 4666 
L 3047 4666 
L 3047 1625 
L 3713 1625 
L 3713 1100 
L 3047 1100 
L 3047 0 
L 2419 0 
L 2419 1100 
L 313 1100 
L 313 1709 
L 2253 4666 
z
" transform="scale(0.015625)"/>
       </defs>
       <use xlink:href="#DejaVuSans-34"/>
       <use xlink:href="#DejaVuSans-30" x="63.623047"/>
      </g>
     </g>
    </g>
    <g id="xtick_6">
     <g id="line2d_11">
      <path d="M 622.636364 320.4 
L 622.636364 43.2 
" clip-path="url(#pba25413067)" style="fill: none; stroke: #b0b0b0; stroke-width: 0.8; stroke-linecap: square"/>
     </g>
     <g id="line2d_12">
      <g>
       <use xlink:href="#m97b51e6102" x="622.636364" y="320.4" style="stroke: #000000; stroke-width: 0.8"/>
      </g>
     </g>
     <g id="text_6">
      <!-- 50 -->
      <g transform="translate(616.273864 334.998438)scale(0.1 -0.1)">
       <defs>
        <path id="DejaVuSans-35" d="M 691 4666 
L 3169 4666 
L 3169 4134 
L 1269 4134 
L 1269 2991 
Q 1406 3038 1543 3061 
Q 1681 3084 1819 3084 
Q 2600 3084 3056 2656 
Q 3513 2228 3513 1497 
Q 3513 744 3044 326 
Q 2575 -91 1722 -91 
Q 1428 -91 1123 -41 
Q 819 9 494 109 
L 494 744 
Q 775 591 1075 516 
Q 1375 441 1709 441 
Q 2250 441 2565 725 
Q 2881 1009 2881 1497 
Q 2881 1984 2565 2268 
Q 2250 2553 1709 2553 
Q 1456 2553 1204 2497 
Q 953 2441 691 2322 
L 691 4666 
z
" transform="scale(0.015625)"/>
       </defs>
       <use xlink:href="#DejaVuSans-35"/>
       <use xlink:href="#DejaVuSans-30" x="63.623047"/>
      </g>
     </g>
    </g>
   </g>
   <g id="matplotlib.axis_2">
    <g id="ytick_1">
     <g id="line2d_13">
      <path d="M 90 312.930568 
L 648 312.930568 
" clip-path="url(#pba25413067)" style="fill: none; stroke: #b0b0b0; stroke-width: 0.8; stroke-linecap: square"/>
     </g>
     <g id="line2d_14">
      <defs>
       <path id="mdc80723d29" d="M 0 0 
L -3.5 0 
" style="stroke: #000000; stroke-width: 0.8"/>
      </defs>
      <g>
       <use xlink:href="#mdc80723d29" x="90" y="312.930568" style="stroke: #000000; stroke-width: 0.8"/>
      </g>
     </g>
     <g id="text_7">
      <!-- 7.6 -->
      <g transform="translate(67.096875 316.729787)scale(0.1 -0.1)">
       <defs>
        <path id="DejaVuSans-37" d="M 525 4666 
L 3525 4666 
L 3525 4397 
L 1831 0 
L 1172 0 
L 2766 4134 
L 525 4134 
L 525 4666 
z
" transform="scale(0.015625)"/>
        <path id="DejaVuSans-2e" d="M 684 794 
L 1344 794 
L 1344 0 
L 684 0 
L 684 794 
z
" transform="scale(0.015625)"/>
        <path id="DejaVuSans-36" d="M 2113 2584 
Q 1688 2584 1439 2293 
Q 1191 2003 1191 1497 
Q 1191 994 1439 701 
Q 1688 409 2113 409 
Q 2538 409 2786 701 
Q 3034 994 3034 1497 
Q 3034 2003 2786 2293 
Q 2538 2584 2113 2584 
z
M 3366 4563 
L 3366 3988 
Q 3128 4100 2886 4159 
Q 2644 4219 2406 4219 
Q 1781 4219 1451 3797 
Q 1122 3375 1075 2522 
Q 1259 2794 1537 2939 
Q 1816 3084 2150 3084 
Q 2853 3084 3261 2657 
Q 3669 2231 3669 1497 
Q 3669 778 3244 343 
Q 2819 -91 2113 -91 
Q 1303 -91 875 529 
Q 447 1150 447 2328 
Q 447 3434 972 4092 
Q 1497 4750 2381 4750 
Q 2619 4750 2861 4703 
Q 3103 4656 3366 4563 
z
" transform="scale(0.015625)"/>
       </defs>
       <use xlink:href="#DejaVuSans-37"/>
       <use xlink:href="#DejaVuSans-2e" x="63.623047"/>
       <use xlink:href="#DejaVuSans-36" x="95.410156"/>
      </g>
     </g>
    </g>
    <g id="ytick_2">
     <g id="line2d_15">
      <path d="M 90 277.840553 
L 648 277.840553 
" clip-path="url(#pba25413067)" style="fill: none; stroke: #b0b0b0; stroke-width: 0.8; stroke-linecap: square"/>
     </g>
     <g id="line2d_16">
      <g>
       <use xlink:href="#mdc80723d29" x="90" y="277.840553" style="stroke: #000000; stroke-width: 0.8"/>
      </g>
     </g>
     <g id="text_8">
      <!-- 7.7 -->
      <g transform="translate(67.096875 281.639771)scale(0.1 -0.1)">
       <use xlink:href="#DejaVuSans-37"/>
       <use xlink:href="#DejaVuSans-2e" x="63.623047"/>
       <use xlink:href="#DejaVuSans-37" x="95.410156"/>
      </g>
     </g>
    </g>
    <g id="ytick_3">
     <g id="line2d_17">
      <path d="M 90 242.750537 
L 648 242.750537 
" clip-path="url(#pba25413067)" style="fill: none; stroke: #b0b0b0; stroke-width: 0.8; stroke-linecap: square"/>
     </g>
     <g id="line2d_18">
      <g>
       <use xlink:href="#mdc80723d29" x="90" y="242.750537" style="stroke: #000000; stroke-width: 0.8"/>
      </g>
     </g>
     <g id="text_9">
      <!-- 7.8 -->
      <g transform="translate(67.096875 246.549756)scale(0.1 -0.1)">
       <defs>
        <path id="DejaVuSans-38" d="M 2034 2216 
Q 1584 2216 1326 1975 
Q 1069 1734 1069 1313 
Q 1069 891 1326 650 
Q 1584 409 2034 409 
Q 2484 409 2743 651 
Q 3003 894 3003 1313 
Q 3003 1734 2745 1975 
Q 2488 2216 2034 2216 
z
M 1403 2484 
Q 997 2584 770 2862 
Q 544 3141 544 3541 
Q 544 4100 942 4425 
Q 1341 4750 2034 4750 
Q 2731 4750 3128 4425 
Q 3525 4100 3525 3541 
Q 3525 3141 3298 2862 
Q 3072 2584 2669 2484 
Q 3125 2378 3379 2068 
Q 3634 1759 3634 1313 
Q 3634 634 3220 271 
Q 2806 -91 2034 -91 
Q 1263 -91 848 271 
Q 434 634 434 1313 
Q 434 1759 690 2068 
Q 947 2378 1403 2484 
z
M 1172 3481 
Q 1172 3119 1398 2916 
Q 1625 2713 2034 2713 
Q 2441 2713 2670 2916 
Q 2900 3119 2900 3481 
Q 2900 3844 2670 4047 
Q 2441 4250 2034 4250 
Q 1625 4250 1398 4047 
Q 1172 3844 1172 3481 
z
" transform="scale(0.015625)"/>
       </defs>
       <use xlink:href="#DejaVuSans-37"/>
       <use xlink:href="#DejaVuSans-2e" x="63.623047"/>
       <use xlink:href="#DejaVuSans-38" x="95.410156"/>
      </g>
     </g>
    </g>
    <g id="ytick_4">
     <g id="line2d_19">
      <path d="M 90 207.660521 
L 648 207.660521 
" clip-path="url(#pba25413067)" style="fill: none; stroke: #b0b0b0; stroke-width: 0.8; stroke-linecap: square"/>
     </g>
     <g id="line2d_20">
      <g>
       <use xlink:href="#mdc80723d29" x="90" y="207.660521" style="stroke: #000000; stroke-width: 0.8"/>
      </g>
     </g>
     <g id="text_10">
      <!-- 7.9 -->
      <g transform="translate(67.096875 211.45974)scale(0.1 -0.1)">
       <defs>
        <path id="DejaVuSans-39" d="M 703 97 
L 703 672 
Q 941 559 1184 500 
Q 1428 441 1663 441 
Q 2288 441 2617 861 
Q 2947 1281 2994 2138 
Q 2813 1869 2534 1725 
Q 2256 1581 1919 1581 
Q 1219 1581 811 2004 
Q 403 2428 403 3163 
Q 403 3881 828 4315 
Q 1253 4750 1959 4750 
Q 2769 4750 3195 4129 
Q 3622 3509 3622 2328 
Q 3622 1225 3098 567 
Q 2575 -91 1691 -91 
Q 1453 -91 1209 -44 
Q 966 3 703 97 
z
M 1959 2075 
Q 2384 2075 2632 2365 
Q 2881 2656 2881 3163 
Q 2881 3666 2632 3958 
Q 2384 4250 1959 4250 
Q 1534 4250 1286 3958 
Q 1038 3666 1038 3163 
Q 1038 2656 1286 2365 
Q 1534 2075 1959 2075 
z
" transform="scale(0.015625)"/>
       </defs>
       <use xlink:href="#DejaVuSans-37"/>
       <use xlink:href="#DejaVuSans-2e" x="63.623047"/>
       <use xlink:href="#DejaVuSans-39" x="95.410156"/>
      </g>
     </g>
    </g>
    <g id="ytick_5">
     <g id="line2d_21">
      <path d="M 90 172.570506 
L 648 172.570506 
" clip-path="url(#pba25413067)" style="fill: none; stroke: #b0b0b0; stroke-width: 0.8; stroke-linecap: square"/>
     </g>
     <g id="line2d_22">
      <g>
       <use xlink:href="#mdc80723d29" x="90" y="172.570506" style="stroke: #000000; stroke-width: 0.8"/>
      </g>
     </g>
     <g id="text_11">
      <!-- 8.0 -->
      <g transform="translate(67.096875 176.369724)scale(0.1 -0.1)">
       <use xlink:href="#DejaVuSans-38"/>
       <use xlink:href="#DejaVuSans-2e" x="63.623047"/>
       <use xlink:href="#DejaVuSans-30" x="95.410156"/>
      </g>
     </g>
    </g>
    <g id="ytick_6">
     <g id="line2d_23">
      <path d="M 90 137.48049 
L 648 137.48049 
" clip-path="url(#pba25413067)" style="fill: none; stroke: #b0b0b0; stroke-width: 0.8; stroke-linecap: square"/>
     </g>
     <g id="line2d_24">
      <g>
       <use xlink:href="#mdc80723d29" x="90" y="137.48049" style="stroke: #000000; stroke-width: 0.8"/>
      </g>
     </g>
     <g id="text_12">
      <!-- 8.1 -->
      <g transform="translate(67.096875 141.279709)scale(0.1 -0.1)">
       <use xlink:href="#DejaVuSans-38"/>
       <use xlink:href="#DejaVuSans-2e" x="63.623047"/>
       <use xlink:href="#DejaVuSans-31" x="95.410156"/>
      </g>
     </g>
    </g>
    <g id="ytick_7">
     <g id="line2d_25">
      <path d="M 90 102.390474 
L 648 102.390474 
" clip-path="url(#pba25413067)" style="fill: none; stroke: #b0b0b0; stroke-width: 0.8; stroke-linecap: square"/>
     </g>
     <g id="line2d_26">
      <g>
       <use xlink:href="#mdc80723d29" x="90" y="102.390474" style="stroke: #000000; stroke-width: 0.8"/>
      </g>
     </g>
     <g id="text_13">
      <!-- 8.2 -->
      <g transform="translate(67.096875 106.189693)scale(0.1 -0.1)">
       <use xlink:href="#DejaVuSans-38"/>
       <use xlink:href="#DejaVuSans-2e" x="63.623047"/>
       <use xlink:href="#DejaVuSans-32" x="95.410156"/>
      </g>
     </g>
    </g>
    <g id="ytick_8">
     <g id="line2d_27">
      <path d="M 90 67.300459 
L 648 67.300459 
" clip-path="url(#pba25413067)" style="fill: none; stroke: #b0b0b0; stroke-width: 0.8; stroke-linecap: square"/>
     </g>
     <g id="line2d_28">
      <g>
       <use xlink:href="#mdc80723d29" x="90" y="67.300459" style="stroke: #000000; stroke-width: 0.8"/>
      </g>
     </g>
     <g id="text_14">
      <!-- 8.3 -->
      <g transform="translate(67.096875 71.099677)scale(0.1 -0.1)">
       <use xlink:href="#DejaVuSans-38"/>
       <use xlink:href="#DejaVuSans-2e" x="63.623047"/>
       <use xlink:href="#DejaVuSans-33" x="95.410156"/>
      </g>
     </g>
    </g>
   </g>
   <g id="line2d_29">
    <path d="M 115.363636 55.8 
L 125.716141 204.736364 
L 136.068646 229.590911 
L 146.42115 255.251449 
L 156.773655 274.611635 
L 167.12616 294.405855 
L 177.478664 296.824331 
L 187.831169 294.351643 
L 198.183673 307.8 
L 208.536178 300.396158 
L 218.888683 290.793201 
L 229.241187 293.289649 
L 239.593692 287.907729 
L 249.946197 290.480308 
L 260.298701 287.891499 
L 270.651206 286.315491 
L 281.003711 287.631647 
L 291.356215 286.290727 
L 301.70872 291.864565 
L 312.061224 292.907317 
L 322.413729 290.64328 
L 332.766234 289.633658 
L 343.118738 288.104165 
L 353.471243 282.469422 
L 363.823748 281.229229 
L 374.176252 281.088679 
L 384.528757 282.420731 
L 394.881262 286.721414 
L 405.233766 285.980511 
L 415.586271 290.607808 
L 425.938776 292.396483 
L 436.29128 292.691974 
L 446.643785 290.621361 
L 456.996289 292.796885 
L 467.348794 292.287723 
L 477.701299 295.558705 
L 488.053803 297.001525 
L 498.406308 295.991401 
L 508.758813 296.090623 
L 519.111317 295.367289 
L 529.463822 293.51704 
L 539.816327 294.046447 
L 550.168831 291.193436 
L 560.521336 293.834282 
L 570.87384 294.078573 
L 581.226345 293.674657 
L 591.57885 292.348963 
L 601.931354 293.076982 
L 612.283859 292.043767 
L 622.636364 294.83236 
" clip-path="url(#pba25413067)" style="fill: none; stroke: #1f77b4; stroke-width: 1.5; stroke-linecap: square"/>
    <defs>
     <path id="me7fd82c09c" d="M -3 3 
L 3 -3 
M -3 -3 
L 3 3 
" style="stroke: #1f77b4"/>
    </defs>
    <g clip-path="url(#pba25413067)">
     <use xlink:href="#me7fd82c09c" x="115.363636" y="55.8" style="fill: #1f77b4; stroke: #1f77b4"/>
     <use xlink:href="#me7fd82c09c" x="125.716141" y="204.736364" style="fill: #1f77b4; stroke: #1f77b4"/>
     <use xlink:href="#me7fd82c09c" x="136.068646" y="229.590911" style="fill: #1f77b4; stroke: #1f77b4"/>
     <use xlink:href="#me7fd82c09c" x="146.42115" y="255.251449" style="fill: #1f77b4; stroke: #1f77b4"/>
     <use xlink:href="#me7fd82c09c" x="156.773655" y="274.611635" style="fill: #1f77b4; stroke: #1f77b4"/>
     <use xlink:href="#me7fd82c09c" x="167.12616" y="294.405855" style="fill: #1f77b4; stroke: #1f77b4"/>
     <use xlink:href="#me7fd82c09c" x="177.478664" y="296.824331" style="fill: #1f77b4; stroke: #1f77b4"/>
     <use xlink:href="#me7fd82c09c" x="187.831169" y="294.351643" style="fill: #1f77b4; stroke: #1f77b4"/>
     <use xlink:href="#me7fd82c09c" x="198.183673" y="307.8" style="fill: #1f77b4; stroke: #1f77b4"/>
     <use xlink:href="#me7fd82c09c" x="208.536178" y="300.396158" style="fill: #1f77b4; stroke: #1f77b4"/>
     <use xlink:href="#me7fd82c09c" x="218.888683" y="290.793201" style="fill: #1f77b4; stroke: #1f77b4"/>
     <use xlink:href="#me7fd82c09c" x="229.241187" y="293.289649" style="fill: #1f77b4; stroke: #1f77b4"/>
     <use xlink:href="#me7fd82c09c" x="239.593692" y="287.907729" style="fill: #1f77b4; stroke: #1f77b4"/>
     <use xlink:href="#me7fd82c09c" x="249.946197" y="290.480308" style="fill: #1f77b4; stroke: #1f77b4"/>
     <use xlink:href="#me7fd82c09c" x="260.298701" y="287.891499" style="fill: #1f77b4; stroke: #1f77b4"/>
     <use xlink:href="#me7fd82c09c" x="270.651206" y="286.315491" style="fill: #1f77b4; stroke: #1f77b4"/>
     <use xlink:href="#me7fd82c09c" x="281.003711" y="287.631647" style="fill: #1f77b4; stroke: #1f77b4"/>
     <use xlink:href="#me7fd82c09c" x="291.356215" y="286.290727" style="fill: #1f77b4; stroke: #1f77b4"/>
     <use xlink:href="#me7fd82c09c" x="301.70872" y="291.864565" style="fill: #1f77b4; stroke: #1f77b4"/>
     <use xlink:href="#me7fd82c09c" x="312.061224" y="292.907317" style="fill: #1f77b4; stroke: #1f77b4"/>
     <use xlink:href="#me7fd82c09c" x="322.413729" y="290.64328" style="fill: #1f77b4; stroke: #1f77b4"/>
     <use xlink:href="#me7fd82c09c" x="332.766234" y="289.633658" style="fill: #1f77b4; stroke: #1f77b4"/>
     <use xlink:href="#me7fd82c09c" x="343.118738" y="288.104165" style="fill: #1f77b4; stroke: #1f77b4"/>
     <use xlink:href="#me7fd82c09c" x="353.471243" y="282.469422" style="fill: #1f77b4; stroke: #1f77b4"/>
     <use xlink:href="#me7fd82c09c" x="363.823748" y="281.229229" style="fill: #1f77b4; stroke: #1f77b4"/>
     <use xlink:href="#me7fd82c09c" x="374.176252" y="281.088679" style="fill: #1f77b4; stroke: #1f77b4"/>
     <use xlink:href="#me7fd82c09c" x="384.528757" y="282.420731" style="fill: #1f77b4; stroke: #1f77b4"/>
     <use xlink:href="#me7fd82c09c" x="394.881262" y="286.721414" style="fill: #1f77b4; stroke: #1f77b4"/>
     <use xlink:href="#me7fd82c09c" x="405.233766" y="285.980511" style="fill: #1f77b4; stroke: #1f77b4"/>
     <use xlink:href="#me7fd82c09c" x="415.586271" y="290.607808" style="fill: #1f77b4; stroke: #1f77b4"/>
     <use xlink:href="#me7fd82c09c" x="425.938776" y="292.396483" style="fill: #1f77b4; stroke: #1f77b4"/>
     <use xlink:href="#me7fd82c09c" x="436.29128" y="292.691974" style="fill: #1f77b4; stroke: #1f77b4"/>
     <use xlink:href="#me7fd82c09c" x="446.643785" y="290.621361" style="fill: #1f77b4; stroke: #1f77b4"/>
     <use xlink:href="#me7fd82c09c" x="456.996289" y="292.796885" style="fill: #1f77b4; stroke: #1f77b4"/>
     <use xlink:href="#me7fd82c09c" x="467.348794" y="292.287723" style="fill: #1f77b4; stroke: #1f77b4"/>
     <use xlink:href="#me7fd82c09c" x="477.701299" y="295.558705" style="fill: #1f77b4; stroke: #1f77b4"/>
     <use xlink:href="#me7fd82c09c" x="488.053803" y="297.001525" style="fill: #1f77b4; stroke: #1f77b4"/>
     <use xlink:href="#me7fd82c09c" x="498.406308" y="295.991401" style="fill: #1f77b4; stroke: #1f77b4"/>
     <use xlink:href="#me7fd82c09c" x="508.758813" y="296.090623" style="fill: #1f77b4; stroke: #1f77b4"/>
     <use xlink:href="#me7fd82c09c" x="519.111317" y="295.367289" style="fill: #1f77b4; stroke: #1f77b4"/>
     <use xlink:href="#me7fd82c09c" x="529.463822" y="293.51704" style="fill: #1f77b4; stroke: #1f77b4"/>
     <use xlink:href="#me7fd82c09c" x="539.816327" y="294.046447" style="fill: #1f77b4; stroke: #1f77b4"/>
     <use xlink:href="#me7fd82c09c" x="550.168831" y="291.193436" style="fill: #1f77b4; stroke: #1f77b4"/>
     <use xlink:href="#me7fd82c09c" x="560.521336" y="293.834282" style="fill: #1f77b4; stroke: #1f77b4"/>
     <use xlink:href="#me7fd82c09c" x="570.87384" y="294.078573" style="fill: #1f77b4; stroke: #1f77b4"/>
     <use xlink:href="#me7fd82c09c" x="581.226345" y="293.674657" style="fill: #1f77b4; stroke: #1f77b4"/>
     <use xlink:href="#me7fd82c09c" x="591.57885" y="292.348963" style="fill: #1f77b4; stroke: #1f77b4"/>
     <use xlink:href="#me7fd82c09c" x="601.931354" y="293.076982" style="fill: #1f77b4; stroke: #1f77b4"/>
     <use xlink:href="#me7fd82c09c" x="612.283859" y="292.043767" style="fill: #1f77b4; stroke: #1f77b4"/>
     <use xlink:href="#me7fd82c09c" x="622.636364" y="294.83236" style="fill: #1f77b4; stroke: #1f77b4"/>
    </g>
   </g>
   <g id="patch_3">
    <path d="M 90 320.4 
L 90 43.2 
" style="fill: none; stroke: #000000; stroke-width: 0.8; stroke-linejoin: miter; stroke-linecap: square"/>
   </g>
   <g id="patch_4">
    <path d="M 648 320.4 
L 648 43.2 
" style="fill: none; stroke: #000000; stroke-width: 0.8; stroke-linejoin: miter; stroke-linecap: square"/>
   </g>
   <g id="patch_5">
    <path d="M 90 320.4 
L 648 320.4 
" style="fill: none; stroke: #000000; stroke-width: 0.8; stroke-linejoin: miter; stroke-linecap: square"/>
   </g>
   <g id="patch_6">
    <path d="M 90 43.2 
L 648 43.2 
" style="fill: none; stroke: #000000; stroke-width: 0.8; stroke-linejoin: miter; stroke-linecap: square"/>
   </g>
  </g>
 </g>
 <defs>
  <clipPath id="pba25413067">
   <rect x="90" y="43.2" width="558" height="277.2"/>
  </clipPath>
 </defs>
</svg>
